<svg width="418" height="87" viewBox="0 0 418 87" fill="none" xmlns="http://www.w3.org/2000/svg">
<path d="M114.16 45L107.152 32.28H105.184V45H96.976V11.304H110.752C113.408 11.304 115.664 11.768 117.52 12.696C119.408 13.624 120.816 14.904 121.744 16.536C122.672 18.136 123.136 19.928 123.136 21.912C123.136 24.152 122.496 26.152 121.216 27.912C119.968 29.672 118.112 30.92 115.648 31.656L123.424 45H114.16ZM105.184 26.472H110.272C111.776 26.472 112.896 26.104 113.632 25.368C114.4 24.632 114.784 23.592 114.784 22.248C114.784 20.968 114.4 19.96 113.632 19.224C112.896 18.488 111.776 18.12 110.272 18.12H105.184V26.472ZM144.225 45.336C141.057 45.336 138.145 44.6 135.489 43.128C132.865 41.656 130.769 39.608 129.201 36.984C127.664 34.328 126.896 31.352 126.896 28.056C126.896 24.76 127.664 21.8 129.201 19.176C130.769 16.552 132.865 14.504 135.489 13.032C138.145 11.56 141.057 10.824 144.225 10.824C147.393 10.824 150.289 11.56 152.913 13.032C155.569 14.504 157.649 16.552 159.153 19.176C160.689 21.8 161.457 24.76 161.457 28.056C161.457 31.352 160.689 34.328 159.153 36.984C157.617 39.608 155.537 41.656 152.913 43.128C150.289 44.6 147.393 45.336 144.225 45.336ZM144.225 37.848C146.913 37.848 149.057 36.952 150.656 35.16C152.289 33.368 153.105 31 153.105 28.056C153.105 25.08 152.289 22.712 150.656 20.952C149.057 19.16 146.913 18.264 144.225 18.264C141.505 18.264 139.329 19.144 137.697 20.904C136.097 22.664 135.297 25.048 135.297 28.056C135.297 31.032 136.097 33.416 137.697 35.208C139.329 36.968 141.505 37.848 144.225 37.848ZM174.087 11.304V31.464C174.087 33.48 174.583 35.032 175.575 36.12C176.567 37.208 178.023 37.752 179.943 37.752C181.863 37.752 183.335 37.208 184.359 36.12C185.383 35.032 185.895 33.48 185.895 31.464V11.304H194.103V31.416C194.103 34.424 193.463 36.968 192.183 39.048C190.903 41.128 189.175 42.696 186.999 43.752C184.855 44.808 182.455 45.336 179.799 45.336C177.143 45.336 174.759 44.824 172.647 43.8C170.567 42.744 168.919 41.176 167.703 39.096C166.487 36.984 165.879 34.424 165.879 31.416V11.304H174.087ZM230.011 45H221.803L208.075 24.216V45H199.867V11.304H208.075L221.803 32.184V11.304H230.011V45ZM248.584 11.304C252.136 11.304 255.24 12.008 257.896 13.416C260.552 14.824 262.6 16.808 264.04 19.368C265.512 21.896 266.248 24.824 266.248 28.152C266.248 31.448 265.512 34.376 264.04 36.936C262.6 39.496 260.536 41.48 257.848 42.888C255.192 44.296 252.104 45 248.584 45H235.96V11.304H248.584ZM248.056 37.896C251.16 37.896 253.576 37.048 255.304 35.352C257.032 33.656 257.896 31.256 257.896 28.152C257.896 25.048 257.032 22.632 255.304 20.904C253.576 19.176 251.16 18.312 248.056 18.312H244.168V37.896H248.056ZM298.191 45L291.183 32.28H289.215V45H281.007V11.304H294.783C297.439 11.304 299.695 11.768 301.551 12.696C303.439 13.624 304.847 14.904 305.775 16.536C306.703 18.136 307.167 19.928 307.167 21.912C307.167 24.152 306.527 26.152 305.247 27.912C303.999 29.672 302.143 30.92 299.679 31.656L307.455 45H298.191ZM289.215 26.472H294.303C295.807 26.472 296.927 26.104 297.663 25.368C298.431 24.632 298.815 23.592 298.815 22.248C298.815 20.968 298.431 19.96 297.663 19.224C296.927 18.488 295.807 18.12 294.303 18.12H289.215V26.472ZM328.256 45.336C325.088 45.336 322.176 44.6 319.52 43.128C316.896 41.656 314.8 39.608 313.232 36.984C311.696 34.328 310.928 31.352 310.928 28.056C310.928 24.76 311.696 21.8 313.232 19.176C314.8 16.552 316.896 14.504 319.52 13.032C322.176 11.56 325.088 10.824 328.256 10.824C331.424 10.824 334.32 11.56 336.944 13.032C339.6 14.504 341.68 16.552 343.184 19.176C344.72 21.8 345.488 24.76 345.488 28.056C345.488 31.352 344.72 34.328 343.184 36.984C341.648 39.608 339.568 41.656 336.944 43.128C334.32 44.6 331.424 45.336 328.256 45.336ZM328.256 37.848C330.944 37.848 333.088 36.952 334.688 35.16C336.32 33.368 337.136 31 337.136 28.056C337.136 25.08 336.32 22.712 334.688 20.952C333.088 19.16 330.944 18.264 328.256 18.264C325.536 18.264 323.36 19.144 321.728 20.904C320.128 22.664 319.328 25.048 319.328 28.056C319.328 31.032 320.128 33.416 321.728 35.208C323.36 36.968 325.536 37.848 328.256 37.848ZM348.662 28.104C348.662 24.776 349.382 21.816 350.822 19.224C352.262 16.6 354.262 14.568 356.822 13.128C359.414 11.656 362.342 10.92 365.606 10.92C369.606 10.92 373.03 11.976 375.878 14.088C378.726 16.2 380.63 19.08 381.59 22.728H372.566C371.894 21.32 370.934 20.248 369.686 19.512C368.47 18.776 367.078 18.408 365.51 18.408C362.982 18.408 360.934 19.288 359.366 21.048C357.798 22.808 357.014 25.16 357.014 28.104C357.014 31.048 357.798 33.4 359.366 35.16C360.934 36.92 362.982 37.8 365.51 37.8C367.078 37.8 368.47 37.432 369.686 36.696C370.934 35.96 371.894 34.888 372.566 33.48H381.59C380.63 37.128 378.726 40.008 375.878 42.12C373.03 44.2 369.606 45.24 365.606 45.24C362.342 45.24 359.414 44.52 356.822 43.08C354.262 41.608 352.262 39.576 350.822 36.984C349.382 34.392 348.662 31.432 348.662 28.104ZM406.153 45L394.825 30.12V45H386.617V11.304H394.825V26.088L406.057 11.304H415.705L402.649 27.816L416.185 45H406.153ZM113.104 62.768C113.104 64.0693 112.805 65.264 112.208 66.352C111.611 67.4187 110.693 68.2827 109.456 68.944C108.219 69.6053 106.683 69.936 104.848 69.936H101.456V78H95.984V55.536H104.848C106.64 55.536 108.155 55.8453 109.392 56.464C110.629 57.0827 111.557 57.936 112.176 59.024C112.795 60.112 113.104 61.36 113.104 62.768ZM104.432 65.584C105.477 65.584 106.256 65.3387 106.768 64.848C107.28 64.3573 107.536 63.664 107.536 62.768C107.536 61.872 107.28 61.1787 106.768 60.688C106.256 60.1973 105.477 59.952 104.432 59.952H101.456V65.584H104.432ZM143.825 73.776H150.993V78H138.353V55.536H143.825V73.776ZM181.379 55.536V68.976C181.379 70.32 181.709 71.3547 182.371 72.08C183.032 72.8053 184.003 73.168 185.283 73.168C186.563 73.168 187.544 72.8053 188.227 72.08C188.909 71.3547 189.251 70.32 189.251 68.976V55.536H194.723V68.944C194.723 70.9493 194.296 72.6453 193.443 74.032C192.589 75.4187 191.437 76.464 189.987 77.168C188.557 77.872 186.957 78.224 185.187 78.224C183.416 78.224 181.827 77.8827 180.419 77.2C179.032 76.496 177.933 75.4507 177.123 74.064C176.312 72.656 175.907 70.9493 175.907 68.944V55.536H181.379ZM246.405 55.536V78H240.933V64.528L235.909 78H231.493L226.437 64.496V78H220.965V55.536H227.429L233.733 71.088L239.973 55.536H246.405ZM286.34 66.48C287.642 66.7573 288.687 67.408 289.476 68.432C290.266 69.4347 290.66 70.5867 290.66 71.888C290.66 73.7653 289.999 75.2587 288.676 76.368C287.375 77.456 285.551 78 283.204 78H272.74V55.536H282.852C285.135 55.536 286.916 56.0587 288.196 57.104C289.498 58.1493 290.148 59.568 290.148 61.36C290.148 62.6827 289.796 63.7813 289.092 64.656C288.41 65.5307 287.492 66.1387 286.34 66.48ZM278.212 64.624H281.796C282.692 64.624 283.375 64.432 283.844 64.048C284.335 63.6427 284.58 63.056 284.58 62.288C284.58 61.52 284.335 60.9333 283.844 60.528C283.375 60.1227 282.692 59.92 281.796 59.92H278.212V64.624ZM282.244 73.584C283.162 73.584 283.866 73.3813 284.356 72.976C284.868 72.5493 285.124 71.9413 285.124 71.152C285.124 70.3627 284.858 69.744 284.324 69.296C283.812 68.848 283.098 68.624 282.18 68.624H278.212V73.584H282.244ZM321.706 55.536V78H316.234V55.536H321.706ZM368.167 78H362.695L353.543 64.144V78H348.071V55.536H353.543L362.695 69.456V55.536H368.167V78ZM409.446 62.64C409.041 61.8933 408.454 61.328 407.686 60.944C406.939 60.5387 406.054 60.336 405.03 60.336C403.259 60.336 401.841 60.9227 400.774 62.096C399.707 63.248 399.174 64.7947 399.174 66.736C399.174 68.8053 399.729 70.4267 400.838 71.6C401.969 72.752 403.515 73.328 405.478 73.328C406.822 73.328 407.953 72.9867 408.87 72.304C409.809 71.6213 410.491 70.64 410.918 69.36H403.974V65.328H415.878V70.416C415.473 71.7813 414.779 73.0507 413.798 74.224C412.838 75.3973 411.611 76.3467 410.118 77.072C408.625 77.7973 406.939 78.16 405.062 78.16C402.843 78.16 400.859 77.68 399.11 76.72C397.382 75.7387 396.027 74.384 395.046 72.656C394.086 70.928 393.606 68.9547 393.606 66.736C393.606 64.5173 394.086 62.544 395.046 60.816C396.027 59.0667 397.382 57.712 399.11 56.752C400.838 55.7707 402.811 55.28 405.03 55.28C407.718 55.28 409.979 55.9307 411.814 57.232C413.67 58.5333 414.897 60.336 415.494 62.64H409.446Z" fill="white"/>
<g clip-path="url(#clip0_1_50597)">
<path d="M3.05562 15.3179H6.0651V18.3229C6.06597 19.1323 6.38836 19.9082 6.96152 20.4805C7.53468 21.0528 8.3118 21.3747 9.12237 21.3756H12.2835C13.094 21.3747 13.8712 21.0528 14.4443 20.4805C15.0175 19.9082 15.3399 19.1323 15.3408 18.3229V15.3179H18.3502C19.1607 15.3166 19.9375 14.9945 20.5106 14.4223C21.0837 13.8501 21.4062 13.0744 21.4075 12.2652V9.10878C21.4062 8.29955 21.0837 7.52384 20.5106 6.95163C19.9375 6.37942 19.1607 6.05737 18.3502 6.05607H15.3408V3.05272C15.3399 2.24335 15.0175 1.46739 14.4443 0.895083C13.8712 0.322776 13.094 0.000871221 12.2835 0L9.12237 0C8.3118 0.000871221 7.53468 0.322776 6.96152 0.895083C6.38836 1.46739 6.06597 2.24335 6.0651 3.05272V6.05607H3.05562C2.24534 6.05737 1.46864 6.37947 0.895835 6.95173C0.32303 7.52399 0.000871627 8.29971 0 9.10878V12.2652C0.000871627 13.0743 0.32303 13.85 0.895835 14.4222C1.46864 14.9945 2.24534 15.3166 3.05562 15.3179ZM2.33539 9.10878C2.33627 8.91862 2.41253 8.73655 2.54751 8.60239C2.68248 8.46823 2.86518 8.39292 3.05562 8.39292H8.40544V3.05272C8.40544 2.86183 8.48127 2.67874 8.61629 2.54361C8.75131 2.40848 8.9345 2.33235 9.12567 2.33191H12.2835C12.4746 2.33235 12.6578 2.40848 12.7929 2.54361C12.9279 2.67874 13.0037 2.86183 13.0037 3.05272V8.39292H18.3502C18.4448 8.39292 18.5385 8.41152 18.6258 8.44766C18.7132 8.4838 18.7926 8.53677 18.8595 8.60355C18.9264 8.67033 18.9794 8.74961 19.0156 8.83687C19.0518 8.92412 19.0705 9.01763 19.0705 9.11208V12.2652C19.0705 12.4561 18.9946 12.6392 18.8596 12.7743C18.7246 12.9094 18.5414 12.9855 18.3502 12.986H13.0037V18.3229C13.0037 18.4173 12.9851 18.5109 12.9489 18.5981C12.9127 18.6854 12.8596 18.7646 12.7928 18.8314C12.7259 18.8982 12.6465 18.9512 12.5591 18.9873C12.4717 19.0234 12.3781 19.042 12.2835 19.042H9.12237C8.93193 19.0412 8.74958 18.965 8.61522 18.8303C8.48087 18.6955 8.40544 18.5131 8.40544 18.3229V12.986H3.05562C2.86446 12.9855 2.68127 12.9094 2.54624 12.7743C2.41122 12.6392 2.33539 12.4561 2.33539 12.2652V9.10878Z" fill="white"/>
<path d="M80.0001 36.5668L70.0701 32.4065V36.027C70.0167 36.0106 69.9612 36.0018 69.9053 36.0007H63.2403V28.4108C63.2398 27.7506 62.977 27.1175 62.5094 26.6507C62.0419 26.1838 61.4079 25.9214 60.7467 25.9209H55.8814C55.2203 25.9218 54.5866 26.1844 54.1191 26.6512C53.6516 27.1179 53.3887 27.7507 53.3878 28.4108V28.4437H48.0561C42.8402 28.4498 37.8397 30.5215 34.1515 34.2042C30.4632 37.8869 28.3885 42.88 28.3824 48.0881V57.5145H28.3478C27.6867 57.5154 27.053 57.778 26.5855 58.2448C26.1181 58.7115 25.8551 59.3443 25.8542 60.0044V64.8015C25.8551 65.4616 26.1181 66.0945 26.5855 66.5612C27.053 67.028 27.6867 67.2906 28.3478 67.2915H28.3758V67.3556C28.375 68.244 28.0211 69.0957 27.392 69.7239C26.7629 70.3521 25.9099 70.7053 25.0202 70.7062H22.2184C21.3287 70.7053 20.4757 70.3521 19.8466 69.7239C19.2175 69.0957 18.8637 68.244 18.8629 67.3556H18.8892C19.5503 67.3548 20.1841 67.0922 20.6515 66.6254C21.119 66.1586 21.382 65.5258 21.3828 64.8657V60.067C21.382 59.4069 21.119 58.7741 20.6515 58.3073C20.1841 57.8405 19.5503 57.5779 18.8892 57.5771H18.8629V35.1252H18.8892C19.5503 35.1243 20.1841 34.8617 20.6515 34.3949C21.119 33.9282 21.382 33.2954 21.3828 32.6353V27.7773C21.3824 27.117 21.1195 26.484 20.652 26.0171C20.1844 25.5503 19.5504 25.2878 18.8892 25.2874H2.51675C1.85553 25.2878 1.22153 25.5503 0.753977 26.0171C0.286428 26.484 0.0235689 27.117 0.0231323 27.7773V32.6353C0.0240045 33.2954 0.287004 33.9282 0.754458 34.3949C1.22191 34.8617 1.85567 35.1243 2.51675 35.1252H2.54312V57.5771H2.51675C1.85567 57.5779 1.22191 57.8405 0.754458 58.3073C0.287004 58.7741 0.0240045 59.4069 0.0231323 60.067V64.8641C0.0240045 65.5242 0.287004 66.157 0.754458 66.6237C1.22191 67.0905 1.85567 67.3531 2.51675 67.354H2.54312C2.54879 72.5627 4.62354 77.5564 8.31215 81.2396C12.0008 84.9227 17.002 86.9943 22.2184 87H25.0202C30.2373 86.9956 35.2395 84.9248 38.9291 81.2419C42.6188 77.559 44.6944 72.5649 44.7005 67.3556V67.2915H44.7252C45.3864 67.291 46.0205 67.0285 46.488 66.5617C46.9556 66.0948 47.2184 65.4618 47.2188 64.8015V60.0044C47.2184 59.3442 46.9556 58.7111 46.488 58.2443C46.0205 57.7774 45.3864 57.515 44.7252 57.5145H44.7005V48.0881C44.7018 47.1999 45.0558 46.3484 45.6848 45.7203C46.3138 45.0923 47.1665 44.7388 48.0561 44.7375H53.3878V44.7622C53.3874 44.8685 53.3946 44.9746 53.4092 45.0798C53.4869 45.6799 53.7805 46.2313 54.2355 46.631C54.6904 47.0307 55.2754 47.2515 55.8814 47.2521H60.7467C61.4079 47.2517 62.0419 46.9892 62.5094 46.5224C62.977 46.0555 63.2398 45.4224 63.2403 44.7622V37.174H69.8971C69.9529 37.1729 70.0084 37.1641 70.0619 37.1477V40.727L80.0001 36.5668ZM30.7211 48.0865C30.7263 43.4971 32.5543 39.0971 35.804 35.8517C39.0537 32.6062 43.4599 30.7801 48.0561 30.774H53.3878V36.0073H48.0561C44.8483 36.0107 41.773 37.2847 39.5047 39.5495C37.2365 41.8144 35.9607 44.8851 35.9572 48.0881V57.5145H30.7178L30.7211 48.0865ZM22.2184 73.0381H25.0202C26.5291 73.0364 27.9756 72.4371 29.0425 71.3718C30.1093 70.3065 30.7095 68.8622 30.7112 67.3556V67.2915H35.9506V67.3556C35.9476 70.2493 34.795 73.0236 32.7458 75.0697C30.6966 77.1158 27.9182 78.2667 25.0202 78.2697H22.2184C19.3203 78.2667 16.5417 77.1159 14.4923 75.0698C12.4428 73.0237 11.2899 70.2494 11.2864 67.3556H16.5258C16.5276 68.8625 17.1279 70.3071 18.1952 71.3724C19.2624 72.4378 20.7093 73.0368 22.2184 73.0381ZM16.5258 57.5771H11.2864V35.1252H16.5258V57.5771ZM2.36017 32.6353V27.7773C2.36012 27.735 2.37635 27.6943 2.4055 27.6637C2.43465 27.6331 2.47448 27.6148 2.51675 27.6127H18.8892C18.9329 27.6127 18.9749 27.63 19.0058 27.6609C19.0367 27.6917 19.054 27.7336 19.054 27.7773V32.6353C19.0519 32.6775 19.0336 32.7173 19.0029 32.7464C18.9723 32.7755 18.9315 32.7917 18.8892 32.7916H2.51675C2.47587 32.7896 2.43719 32.7725 2.40825 32.7436C2.37931 32.7147 2.36217 32.6761 2.36017 32.6353ZM4.88016 35.1252H10.1195V57.5771H4.88016V35.1252ZM2.51675 65.0204C2.47448 65.0183 2.43465 65 2.4055 64.9694C2.37635 64.9388 2.36012 64.8981 2.36017 64.8559V60.067C2.36217 60.0261 2.37931 59.9875 2.40825 59.9586C2.43719 59.9297 2.47587 59.9126 2.51675 59.9106H18.8892C18.9315 59.9106 18.9723 59.9268 19.0029 59.9559C19.0336 59.985 19.0519 60.0248 19.054 60.067V64.8641C19.054 64.9077 19.0367 64.9496 19.0058 64.9805C18.9749 65.0113 18.9329 65.0287 18.8892 65.0287H2.51675V65.0204ZM42.3651 67.3556C42.3599 71.9456 40.5315 76.346 37.2811 79.5916C34.0307 82.8372 29.6236 84.6629 25.0268 84.6681H22.225C17.6282 84.6629 13.2212 82.8372 9.9708 79.5916C6.72037 76.346 4.89198 71.9456 4.88675 67.3556H10.1195C10.123 70.5586 11.3989 73.6294 13.6671 75.8942C15.9353 78.1591 19.0107 79.433 22.2184 79.4365H25.0202C28.228 79.433 31.3034 78.1591 33.5716 75.8942C35.8398 73.6294 37.1156 70.5586 37.1191 67.3556V67.2915H42.3585L42.3651 67.3556ZM44.7252 59.8481C44.7676 59.848 44.8083 59.8642 44.839 59.8933C44.8696 59.9224 44.8879 59.9622 44.89 60.0044V64.8015C44.89 64.8452 44.8727 64.8871 44.8418 64.9179C44.8109 64.9488 44.7689 64.9661 44.7252 64.9661H28.3478C28.3055 64.964 28.2657 64.9457 28.2366 64.9151C28.2074 64.8845 28.1912 64.8438 28.1912 64.8015V60.0044C28.1932 59.9636 28.2104 59.925 28.2393 59.8961C28.2683 59.8672 28.3069 59.8501 28.3478 59.8481H44.7186H44.7252ZM48.0561 42.404C46.5473 42.4057 45.1008 43.005 44.0339 44.0703C42.967 45.1356 42.3669 46.5799 42.3651 48.0865V57.5129H37.1257V48.0881C37.1288 45.1945 38.2814 42.4202 40.3305 40.3741C42.3797 38.3279 45.1581 37.1771 48.0561 37.174H53.3878V42.4056L48.0561 42.404ZM60.9115 44.7556C60.9115 44.7993 60.8941 44.8411 60.8632 44.872C60.8323 44.9029 60.7904 44.9202 60.7467 44.9202H55.8814C55.8391 44.9181 55.7993 44.8998 55.7701 44.8692C55.741 44.8386 55.7248 44.7979 55.7248 44.7556V28.4108C55.7268 28.37 55.744 28.3314 55.7729 28.3025C55.8018 28.2736 55.8405 28.2565 55.8814 28.2545H60.7467C60.789 28.2544 60.8297 28.2706 60.8604 28.2998C60.8911 28.3289 60.9094 28.3686 60.9115 28.4108V44.7622V44.7556ZM72.4121 35.9134L73.9679 36.5717L72.4121 37.23V35.9134Z" fill="white"/>
<path d="M10.7029 31.4323C10.7797 31.4323 10.8557 31.4172 10.9266 31.3878C10.9975 31.3584 11.0619 31.3154 11.1161 31.2611C11.1703 31.2068 11.2132 31.1424 11.2424 31.0715C11.2717 31.0007 11.2866 30.9247 11.2864 30.8481V29.576C11.2864 29.4215 11.2249 29.2733 11.1155 29.164C11.0061 29.0548 10.8577 28.9934 10.7029 28.9934C10.5482 28.9934 10.3998 29.0548 10.2904 29.164C10.181 29.2733 10.1195 29.4215 10.1195 29.576V30.8481C10.1193 30.9247 10.1342 31.0007 10.1634 31.0715C10.1927 31.1424 10.2356 31.2068 10.2898 31.2611C10.344 31.3154 10.4084 31.3584 10.4793 31.3878C10.5502 31.4172 10.6262 31.4323 10.7029 31.4323Z" fill="white"/>
<path d="M6.0058 31.4323C6.08333 31.4325 6.16013 31.4174 6.23174 31.3877C6.30335 31.358 6.36834 31.3144 6.42293 31.2595C6.47753 31.2045 6.52063 31.1392 6.54975 31.0675C6.57886 30.9957 6.59341 30.9189 6.59253 30.8415V29.5694C6.58458 29.42 6.51956 29.2794 6.41086 29.1765C6.30217 29.0735 6.15807 29.0162 6.00827 29.0162C5.85847 29.0162 5.71438 29.0735 5.60568 29.1765C5.49698 29.2794 5.43196 29.42 5.42401 29.5694V30.8415C5.42408 30.9927 5.48321 31.138 5.58882 31.2463C5.64235 31.3036 5.70683 31.3495 5.77845 31.3815C5.85007 31.4134 5.92738 31.4307 6.0058 31.4323Z" fill="white"/>
<path d="M15.4001 31.4323C15.4794 31.4314 15.5576 31.4144 15.6302 31.3824C15.7027 31.3505 15.7679 31.3042 15.822 31.2463C15.9277 31.1379 15.9868 30.9927 15.9869 30.8415V29.5694C15.9789 29.42 15.9139 29.2794 15.8052 29.1765C15.6965 29.0735 15.5524 29.0162 15.4026 29.0162C15.2528 29.0162 15.1087 29.0735 15 29.1765C14.8913 29.2794 14.8263 29.42 14.8183 29.5694V30.8415C14.8175 30.9185 14.8318 30.9949 14.8607 31.0663C14.8895 31.1378 14.9321 31.2028 14.9862 31.2577C15.0403 31.3126 15.1047 31.3563 15.1757 31.3863C15.2467 31.4162 15.323 31.4319 15.4001 31.4323Z" fill="white"/>
<path d="M10.7029 63.6215C10.7796 63.6218 10.8556 63.6068 10.9265 63.5776C10.9974 63.5484 11.0618 63.5055 11.116 63.4514C11.1702 63.3973 11.2132 63.333 11.2424 63.2622C11.2717 63.1914 11.2866 63.1155 11.2864 63.039V61.7669C11.2864 61.6124 11.2249 61.4642 11.1155 61.355C11.0061 61.2457 10.8577 61.1843 10.7029 61.1843C10.5482 61.1843 10.3998 61.2457 10.2904 61.355C10.181 61.4642 10.1195 61.6124 10.1195 61.7669V63.039C10.1193 63.1155 10.1342 63.1914 10.1635 63.2622C10.1927 63.333 10.2357 63.3973 10.2899 63.4514C10.3441 63.5055 10.4085 63.5484 10.4794 63.5776C10.5503 63.6068 10.6263 63.6218 10.7029 63.6215Z" fill="white"/>
<path d="M6.0058 63.6216C6.08269 63.622 6.15892 63.6073 6.23008 63.5782C6.30125 63.5491 6.36596 63.5062 6.42048 63.4521C6.47501 63.398 6.51828 63.3336 6.54781 63.2627C6.57733 63.1918 6.59253 63.1158 6.59253 63.039V61.7669C6.58458 61.6175 6.51956 61.4769 6.41086 61.374C6.30217 61.2711 6.15807 61.2137 6.00827 61.2137C5.85847 61.2137 5.71438 61.2711 5.60568 61.374C5.49698 61.4769 5.43196 61.6175 5.42401 61.7669V63.039C5.42401 63.1932 5.48525 63.3411 5.59431 63.4504C5.70337 63.5596 5.85135 63.6211 6.0058 63.6216Z" fill="white"/>
<path d="M15.4001 63.6216C15.477 63.622 15.5533 63.6073 15.6244 63.5782C15.6956 63.5491 15.7603 63.5062 15.8148 63.4521C15.8694 63.398 15.9126 63.3336 15.9422 63.2627C15.9717 63.1918 15.9869 63.1158 15.9869 63.039V61.7669C15.9789 61.6175 15.9139 61.4769 15.8052 61.374C15.6965 61.2711 15.5524 61.2137 15.4026 61.2137C15.2528 61.2137 15.1087 61.2711 15 61.374C14.8913 61.4769 14.8263 61.6175 14.8184 61.7669V63.039C14.8184 63.1932 14.8796 63.3411 14.9887 63.4504C15.0977 63.5596 15.2457 63.6211 15.4001 63.6216Z" fill="white"/>
<path d="M36.5406 61.1844C36.3907 61.1838 36.2464 61.241 36.1378 61.344C36.0291 61.447 35.9644 61.5879 35.9572 61.7373C35.9563 61.7472 35.9563 61.7571 35.9572 61.767V63.0391C35.9563 63.0489 35.9563 63.0588 35.9572 63.0687C35.9611 63.2232 36.0263 63.3698 36.1385 63.4763C36.2507 63.5827 36.4007 63.6404 36.5554 63.6364C36.7102 63.6325 36.857 63.5674 36.9636 63.4553C37.0703 63.3433 37.128 63.1936 37.124 63.0391V61.767C37.124 61.6904 37.1089 61.6147 37.0796 61.544C37.0503 61.4733 37.0073 61.4091 36.9531 61.355C36.899 61.3009 36.8346 61.258 36.7639 61.2287C36.6931 61.1995 36.6172 61.1844 36.5406 61.1844Z" fill="white"/>
<path d="M31.8419 61.1843C31.7652 61.1843 31.6894 61.1994 31.6186 61.2287C31.5478 61.258 31.4835 61.3009 31.4293 61.355C31.3751 61.4091 31.3322 61.4733 31.3028 61.544C31.2735 61.6146 31.2584 61.6904 31.2584 61.7669V63.039C31.2664 63.1884 31.3314 63.329 31.4401 63.4319C31.5488 63.5348 31.6929 63.5922 31.8427 63.5922C31.9925 63.5922 32.1366 63.5348 32.2453 63.4319C32.354 63.329 32.419 63.1884 32.4269 63.039V61.7669C32.4269 61.6903 32.4118 61.6144 32.3824 61.5436C32.353 61.4728 32.3098 61.4085 32.2555 61.3544C32.2011 61.3003 32.1366 61.2574 32.0656 61.2282C31.9947 61.199 31.9186 61.1841 31.8419 61.1843Z" fill="white"/>
<path d="M41.2378 61.1843C41.1612 61.1843 41.0853 61.1994 41.0145 61.2287C40.9437 61.258 40.8794 61.3009 40.8252 61.355C40.7711 61.4091 40.7281 61.4733 40.6988 61.544C40.6694 61.6146 40.6544 61.6904 40.6544 61.7669V63.039C40.6623 63.1884 40.7273 63.329 40.836 63.4319C40.9447 63.5348 41.0888 63.5922 41.2386 63.5922C41.3884 63.5922 41.5325 63.5348 41.6412 63.4319C41.7499 63.329 41.8149 63.1884 41.8229 63.039V61.7669C41.8229 61.6903 41.8077 61.6144 41.7783 61.5436C41.7489 61.4728 41.7058 61.4085 41.6514 61.3544C41.5971 61.3003 41.5325 61.2574 41.4616 61.2282C41.3906 61.199 41.3145 61.1841 41.2378 61.1843Z" fill="white"/>
<path d="M59.0343 36.0073C59.0069 36.0047 58.9793 36.0047 58.9519 36.0073H57.6845C57.6571 36.0047 57.6295 36.0047 57.6021 36.0073C57.4636 36.0358 57.3403 36.1136 57.255 36.2262C57.1697 36.3388 57.1282 36.4784 57.1383 36.6193C57.1483 36.7601 57.2093 36.8924 57.3097 36.9917C57.4102 37.0911 57.5434 37.1506 57.6845 37.1592H58.9585C59.0996 37.1506 59.2327 37.0911 59.3332 36.9917C59.4337 36.8924 59.4946 36.7601 59.5047 36.6193C59.5147 36.4784 59.4733 36.3388 59.388 36.2262C59.3027 36.1136 59.1793 36.0358 59.0409 36.0073H59.0343Z" fill="white"/>
<path d="M59.1792 40.7369C59.1072 40.7064 59.0299 40.6907 58.9517 40.6908H57.6843C57.605 40.6866 57.5256 40.6986 57.4511 40.726C57.3765 40.7534 57.3083 40.7957 57.2507 40.8503C57.193 40.9049 57.1471 40.9706 57.1157 41.0435C57.0844 41.1164 57.0682 41.1949 57.0682 41.2742C57.0682 41.3535 57.0844 41.432 57.1157 41.5049C57.1471 41.5778 57.193 41.6436 57.2507 41.6981C57.3083 41.7527 57.3765 41.795 57.4511 41.8224C57.5256 41.8498 57.605 41.8618 57.6843 41.8576H58.9583C59.0351 41.8576 59.1111 41.8425 59.182 41.8131C59.2529 41.7837 59.3173 41.7407 59.3715 41.6864C59.4257 41.6321 59.4686 41.5677 59.4978 41.4968C59.527 41.426 59.542 41.35 59.5418 41.2734C59.5417 41.2176 59.5333 41.1622 59.517 41.1088C59.4919 41.0257 59.4486 40.9491 59.3902 40.8848C59.3317 40.8204 59.2596 40.7699 59.1792 40.7369Z" fill="white"/>
<path d="M58.9519 31.3089H57.6844C57.5812 31.3088 57.4798 31.3367 57.3911 31.3895C57.3036 31.4394 57.2307 31.5111 57.1796 31.5977C57.1284 31.6843 57.1008 31.7827 57.0994 31.8832C57.0994 32.0382 57.161 32.1868 57.2707 32.2963C57.3805 32.4059 57.5293 32.4674 57.6844 32.4674H58.9585C59.108 32.4595 59.2489 32.3946 59.352 32.286C59.455 32.1775 59.5125 32.0336 59.5125 31.884C59.5125 31.7345 59.455 31.5906 59.352 31.4821C59.2489 31.3735 59.108 31.3086 58.9585 31.3007L58.9519 31.3089Z" fill="white"/>
</g>
<defs>
<clipPath id="clip0_1_50597">
<rect width="80" height="87" fill="white"/>
</clipPath>
</defs>
</svg>
