<svg width="102" height="136" viewBox="0 0 102 136" fill="none" xmlns="http://www.w3.org/2000/svg">
<path d="M10.4377 130.098C9.71901 130.098 9.07501 129.981 8.50567 129.748C7.93634 129.515 7.47901 129.169 7.13367 128.712C6.79767 128.255 6.62034 127.704 6.60167 127.06H9.14967C9.18701 127.424 9.31301 127.704 9.52767 127.9C9.74234 128.087 10.0223 128.18 10.3677 128.18C10.7223 128.18 11.0023 128.101 11.2077 127.942C11.413 127.774 11.5157 127.545 11.5157 127.256C11.5157 127.013 11.4317 126.813 11.2637 126.654C11.105 126.495 10.9043 126.365 10.6617 126.262C10.4283 126.159 10.0923 126.043 9.65367 125.912C9.01901 125.716 8.50101 125.52 8.09967 125.324C7.69834 125.128 7.35301 124.839 7.06367 124.456C6.77434 124.073 6.62967 123.574 6.62967 122.958C6.62967 122.043 6.96101 121.329 7.62367 120.816C8.28634 120.293 9.14967 120.032 10.2137 120.032C11.2963 120.032 12.169 120.293 12.8317 120.816C13.4943 121.329 13.849 122.048 13.8957 122.972H11.3057C11.287 122.655 11.1703 122.407 10.9557 122.23C10.741 122.043 10.4657 121.95 10.1297 121.95C9.84034 121.95 9.60701 122.029 9.42967 122.188C9.25234 122.337 9.16367 122.557 9.16367 122.846C9.16367 123.163 9.31301 123.411 9.61167 123.588C9.91034 123.765 10.377 123.957 11.0117 124.162C11.6463 124.377 12.1597 124.582 12.5517 124.778C12.953 124.974 13.2983 125.259 13.5877 125.632C13.877 126.005 14.0217 126.486 14.0217 127.074C14.0217 127.634 13.877 128.143 13.5877 128.6C13.3077 129.057 12.897 129.421 12.3557 129.692C11.8143 129.963 11.175 130.098 10.4377 130.098ZM22.859 125.968C22.859 126.192 22.845 126.425 22.817 126.668H17.399C17.4363 127.153 17.5903 127.527 17.861 127.788C18.141 128.04 18.4816 128.166 18.883 128.166C19.4803 128.166 19.8956 127.914 20.129 127.41H22.677C22.5463 127.923 22.3083 128.385 21.963 128.796C21.627 129.207 21.2023 129.529 20.689 129.762C20.1756 129.995 19.6016 130.112 18.967 130.112C18.2016 130.112 17.5203 129.949 16.923 129.622C16.3256 129.295 15.859 128.829 15.523 128.222C15.187 127.615 15.019 126.906 15.019 126.094C15.019 125.282 15.1823 124.573 15.509 123.966C15.845 123.359 16.3116 122.893 16.909 122.566C17.5063 122.239 18.1923 122.076 18.967 122.076C19.723 122.076 20.395 122.235 20.983 122.552C21.571 122.869 22.0283 123.322 22.355 123.91C22.691 124.498 22.859 125.184 22.859 125.968ZM20.409 125.338C20.409 124.927 20.269 124.601 19.989 124.358C19.709 124.115 19.359 123.994 18.939 123.994C18.5376 123.994 18.197 124.111 17.917 124.344C17.6463 124.577 17.4783 124.909 17.413 125.338H20.409ZM26.5159 123.49C26.7959 123.061 27.1459 122.725 27.5659 122.482C27.9859 122.23 28.4526 122.104 28.9659 122.104V124.638H28.3079C27.7106 124.638 27.2626 124.769 26.9639 125.03C26.6652 125.282 26.5159 125.73 26.5159 126.374V130H24.1219V122.188H26.5159V123.49ZM33.6242 127.76L35.3182 122.188H37.8662L35.0942 130H32.1402L29.3682 122.188H31.9302L33.6242 127.76ZM40.0779 121.376C39.6579 121.376 39.3125 121.255 39.0419 121.012C38.7805 120.76 38.6499 120.452 38.6499 120.088C38.6499 119.715 38.7805 119.407 39.0419 119.164C39.3125 118.912 39.6579 118.786 40.0779 118.786C40.4885 118.786 40.8245 118.912 41.0859 119.164C41.3565 119.407 41.4919 119.715 41.4919 120.088C41.4919 120.452 41.3565 120.76 41.0859 121.012C40.8245 121.255 40.4885 121.376 40.0779 121.376ZM41.2679 122.188V130H38.8739V122.188H41.2679ZM42.5268 126.094C42.5268 125.282 42.6901 124.573 43.0168 123.966C43.3528 123.359 43.8148 122.893 44.4028 122.566C45.0001 122.239 45.6814 122.076 46.4468 122.076C47.4268 122.076 48.2434 122.333 48.8968 122.846C49.5594 123.359 49.9934 124.083 50.1988 125.016H47.6508C47.4361 124.419 47.0208 124.12 46.4048 124.12C45.9661 124.12 45.6161 124.293 45.3548 124.638C45.0934 124.974 44.9628 125.459 44.9628 126.094C44.9628 126.729 45.0934 127.219 45.3548 127.564C45.6161 127.9 45.9661 128.068 46.4048 128.068C47.0208 128.068 47.4361 127.769 47.6508 127.172H50.1988C49.9934 128.087 49.5594 128.805 48.8968 129.328C48.2341 129.851 47.4174 130.112 46.4468 130.112C45.6814 130.112 45.0001 129.949 44.4028 129.622C43.8148 129.295 43.3528 128.829 43.0168 128.222C42.6901 127.615 42.5268 126.906 42.5268 126.094ZM58.8433 125.968C58.8433 126.192 58.8293 126.425 58.8013 126.668H53.3833C53.4207 127.153 53.5747 127.527 53.8453 127.788C54.1253 128.04 54.466 128.166 54.8673 128.166C55.4647 128.166 55.88 127.914 56.1133 127.41H58.6613C58.5307 127.923 58.2927 128.385 57.9473 128.796C57.6113 129.207 57.1867 129.529 56.6733 129.762C56.16 129.995 55.586 130.112 54.9513 130.112C54.186 130.112 53.5047 129.949 52.9073 129.622C52.31 129.295 51.8433 128.829 51.5073 128.222C51.1713 127.615 51.0033 126.906 51.0033 126.094C51.0033 125.282 51.1667 124.573 51.4933 123.966C51.8293 123.359 52.296 122.893 52.8933 122.566C53.4907 122.239 54.1767 122.076 54.9513 122.076C55.7073 122.076 56.3793 122.235 56.9673 122.552C57.5553 122.869 58.0127 123.322 58.3393 123.91C58.6753 124.498 58.8433 125.184 58.8433 125.968ZM56.3933 125.338C56.3933 124.927 56.2533 124.601 55.9733 124.358C55.6933 124.115 55.3433 123.994 54.9233 123.994C54.522 123.994 54.1813 124.111 53.9013 124.344C53.6307 124.577 53.4627 124.909 53.3973 125.338H56.3933ZM63.2843 130.112C62.6029 130.112 61.9963 129.995 61.4643 129.762C60.9323 129.529 60.5123 129.211 60.2043 128.81C59.8963 128.399 59.7236 127.942 59.6863 127.438H62.0523C62.0803 127.709 62.2063 127.928 62.4303 128.096C62.6543 128.264 62.9296 128.348 63.2563 128.348C63.5549 128.348 63.7836 128.292 63.9423 128.18C64.1103 128.059 64.1943 127.905 64.1943 127.718C64.1943 127.494 64.0776 127.331 63.8443 127.228C63.6109 127.116 63.2329 126.995 62.7103 126.864C62.1503 126.733 61.6836 126.598 61.3103 126.458C60.9369 126.309 60.6149 126.08 60.3443 125.772C60.0736 125.455 59.9383 125.03 59.9383 124.498C59.9383 124.05 60.0596 123.644 60.3023 123.28C60.5543 122.907 60.9183 122.613 61.3943 122.398C61.8796 122.183 62.4536 122.076 63.1163 122.076C64.0963 122.076 64.8663 122.319 65.4263 122.804C65.9956 123.289 66.3223 123.933 66.4063 124.736H64.1943C64.1569 124.465 64.0356 124.251 63.8303 124.092C63.6343 123.933 63.3729 123.854 63.0463 123.854C62.7663 123.854 62.5516 123.91 62.4023 124.022C62.2529 124.125 62.1783 124.269 62.1783 124.456C62.1783 124.68 62.2949 124.848 62.5283 124.96C62.7709 125.072 63.1443 125.184 63.6483 125.296C64.2269 125.445 64.6983 125.595 65.0623 125.744C65.4263 125.884 65.7436 126.117 66.0143 126.444C66.2943 126.761 66.4389 127.191 66.4483 127.732C66.4483 128.189 66.3176 128.6 66.0563 128.964C65.8043 129.319 65.4356 129.599 64.9503 129.804C64.4743 130.009 63.9189 130.112 63.2843 130.112ZM74.4357 130.112C73.6704 130.112 72.9797 129.949 72.3637 129.622C71.7571 129.295 71.2764 128.829 70.9217 128.222C70.5764 127.615 70.4037 126.906 70.4037 126.094C70.4037 125.291 70.5811 124.587 70.9357 123.98C71.2904 123.364 71.7757 122.893 72.3917 122.566C73.0077 122.239 73.6984 122.076 74.4637 122.076C75.2291 122.076 75.9197 122.239 76.5357 122.566C77.1517 122.893 77.6371 123.364 77.9917 123.98C78.3464 124.587 78.5237 125.291 78.5237 126.094C78.5237 126.897 78.3417 127.606 77.9777 128.222C77.6231 128.829 77.1331 129.295 76.5077 129.622C75.8917 129.949 75.2011 130.112 74.4357 130.112ZM74.4357 128.04C74.8931 128.04 75.2804 127.872 75.5977 127.536C75.9244 127.2 76.0877 126.719 76.0877 126.094C76.0877 125.469 75.9291 124.988 75.6117 124.652C75.3037 124.316 74.9211 124.148 74.4637 124.148C73.9971 124.148 73.6097 124.316 73.3017 124.652C72.9937 124.979 72.8397 125.459 72.8397 126.094C72.8397 126.719 72.9891 127.2 73.2877 127.536C73.5957 127.872 73.9784 128.04 74.4357 128.04ZM84.5538 122.104C85.4684 122.104 86.1964 122.403 86.7378 123C87.2884 123.588 87.5638 124.4 87.5638 125.436V130H85.1838V125.758C85.1838 125.235 85.0484 124.829 84.7778 124.54C84.5071 124.251 84.1431 124.106 83.6858 124.106C83.2284 124.106 82.8644 124.251 82.5938 124.54C82.3231 124.829 82.1878 125.235 82.1878 125.758V130H79.7938V122.188H82.1878V123.224C82.4304 122.879 82.7571 122.608 83.1678 122.412C83.5784 122.207 84.0404 122.104 84.5538 122.104ZM96.5914 125.968C96.5914 126.192 96.5774 126.425 96.5494 126.668H91.1314C91.1687 127.153 91.3227 127.527 91.5934 127.788C91.8734 128.04 92.214 128.166 92.6154 128.166C93.2127 128.166 93.628 127.914 93.8614 127.41H96.4094C96.2787 127.923 96.0407 128.385 95.6954 128.796C95.3594 129.207 94.9347 129.529 94.4214 129.762C93.908 129.995 93.334 130.112 92.6994 130.112C91.934 130.112 91.2527 129.949 90.6554 129.622C90.058 129.295 89.5914 128.829 89.2554 128.222C88.9194 127.615 88.7514 126.906 88.7514 126.094C88.7514 125.282 88.9147 124.573 89.2414 123.966C89.5774 123.359 90.044 122.893 90.6414 122.566C91.2387 122.239 91.9247 122.076 92.6994 122.076C93.4554 122.076 94.1274 122.235 94.7154 122.552C95.3034 122.869 95.7607 123.322 96.0874 123.91C96.4234 124.498 96.5914 125.184 96.5914 125.968ZM94.1414 125.338C94.1414 124.927 94.0014 124.601 93.7214 124.358C93.4414 124.115 93.0914 123.994 92.6714 123.994C92.27 123.994 91.9294 124.111 91.6494 124.344C91.3787 124.577 91.2107 124.909 91.1454 125.338H94.1414Z" fill="white"/>
<path d="M23.3345 72.9203C19.3627 68.9485 16.4269 66.0116 14.2939 63.499C12.1685 60.9954 10.899 58.9791 10.2142 56.8713C8.9743 53.0553 8.9743 48.9447 10.2142 45.1287C10.899 43.0209 12.1685 41.0046 14.2939 38.501C16.4269 35.9884 19.3627 33.0515 23.3345 29.0797L29.0797 23.3345C33.0515 19.3627 35.9884 16.4269 38.501 14.2939C41.0046 12.1685 43.0209 10.899 45.1287 10.2142C48.9447 8.9743 53.0553 8.9743 56.8713 10.2142C58.9791 10.899 60.9954 12.1685 63.499 14.2939C66.0116 16.4269 68.9485 19.3627 72.9203 23.3345L78.6655 29.0797C82.6373 33.0515 85.5731 35.9884 87.7061 38.501C89.8315 41.0046 91.101 43.0209 91.7858 45.1287C93.0257 48.9447 93.0257 53.0553 91.7858 56.8713C91.101 58.9791 89.8315 60.9954 87.7061 63.499C85.5731 66.0116 82.6373 68.9485 78.6655 72.9203L72.9203 78.6655C68.9485 82.6373 66.0116 85.5731 63.499 87.7061C60.9954 89.8315 58.9791 91.101 56.8713 91.7858C53.0553 93.0257 48.9447 93.0257 45.1287 91.7858C43.0209 91.101 41.0046 89.8315 38.501 87.7061C35.9884 85.5731 33.0515 82.6373 29.0797 78.6655L23.3345 72.9203Z" stroke="white" stroke-width="2"/>
<g clip-path="url(#clip0_1_50480)">
<path d="M70.1821 37.6583C69.9639 37.0964 69.4908 36.6888 68.9166 36.568C68.3297 36.4441 67.7166 36.6333 67.2767 37.0734L63.174 41.176L61.1706 39.1727L65.5341 34.8092C65.9884 34.3549 66.1834 33.7223 66.056 33.1169C65.9314 32.525 65.5109 32.0373 64.9314 31.8123C61.1233 30.333 56.7965 31.2436 53.9083 34.1318C52.3876 35.6525 51.3947 37.5726 51.0361 39.6857C50.9594 40.0452 50.8852 40.4269 50.8066 40.8306C50.3479 43.1887 49.7769 46.1235 48.1029 47.7974L33.1144 62.786C31.2636 64.6367 31.2636 67.6483 33.1144 69.4991C34.0398 70.4245 35.2554 70.8872 36.471 70.8872C37.6865 70.8872 38.9022 70.4245 39.8275 69.4991L54.816 54.5106C56.49 52.8366 59.4248 52.2658 61.7829 51.8069C62.1867 51.7284 62.5683 51.6541 62.9278 51.5775C65.0409 51.2188 66.9611 50.2259 68.4818 48.7052C68.9304 48.2565 69.0603 47.6474 68.8745 47.1059C70.9108 44.4085 71.4177 40.8396 70.1821 37.6583ZM68.3752 38.1718C68.4436 38.1034 68.5243 38.0728 68.5966 38.0882C68.6587 38.1013 68.7049 38.1459 68.734 38.2207C69.7271 40.7777 69.3838 43.6322 67.8586 45.8606L64.2725 42.2745L68.3752 38.1718ZM67.3832 47.6068C66.0883 48.9017 64.4526 49.7459 62.6531 50.0484C62.6418 50.0502 62.6306 50.0524 62.6193 50.0548C62.2692 50.1297 61.8888 50.2036 61.4862 50.282C58.9204 50.7812 55.727 51.4024 53.7173 53.4121L38.729 68.4006C37.4841 69.6456 35.4582 69.6456 34.213 68.4005C32.968 67.1554 32.968 65.1296 34.213 63.8845L49.2015 48.896C51.2112 46.8863 51.8324 43.6931 52.3316 41.1272C52.41 40.7245 52.4839 40.3442 52.5588 39.994C52.5612 39.9828 52.5634 39.9716 52.5653 39.9602C52.8676 38.1608 53.7119 36.5252 55.0069 35.2302C56.6793 33.5577 58.9193 32.6663 61.2009 32.6663C62.2657 32.6663 63.3399 32.8606 64.369 33.2603C64.4626 33.2966 64.5187 33.356 64.5357 33.4367C64.5549 33.5278 64.5184 33.6276 64.4356 33.7104L59.5229 38.6231C59.2195 38.9264 59.2195 39.4183 59.5229 39.7217L67.3874 47.5863C67.3902 47.589 67.3926 47.5916 67.3947 47.594C67.3917 47.5979 67.3879 47.6021 67.3832 47.6068Z" fill="white"/>
<path d="M58.4241 40.8205C58.2784 40.6749 58.0808 40.593 57.8748 40.593C57.6688 40.593 57.4712 40.6749 57.3256 40.8205L55.1286 43.0176C54.8253 43.3209 54.8253 43.8128 55.1286 44.1162L58.2305 47.2181C58.3761 47.3637 58.5737 47.4456 58.7797 47.4456C58.9857 47.4456 59.1833 47.3637 59.329 47.2181L61.526 45.021C61.8293 44.7177 61.8293 44.2259 61.526 43.9224L58.4241 40.8205ZM58.7796 45.5702L56.7763 43.5668L57.8748 42.4683L59.8782 44.4716L58.7796 45.5702Z" fill="white"/>
<path d="M37.0201 65.5931C36.7167 65.2897 36.2251 65.2901 35.9218 65.5933C35.6184 65.8967 35.6186 66.3887 35.9219 66.6921C36.0736 66.8437 36.2724 66.9196 36.4712 66.9196C36.67 66.9196 36.8687 66.8437 37.0204 66.6921C37.3238 66.3888 37.3238 65.8969 37.0204 65.5935L37.0201 65.5931Z" fill="white"/>
<path d="M50.9104 50.6051L38.3936 63.1218C38.0903 63.4251 38.0903 63.917 38.3936 64.2204C38.5453 64.372 38.7441 64.4479 38.9429 64.4479C39.1417 64.4479 39.3405 64.372 39.4922 64.2204L52.0089 51.7036C52.3123 51.4003 52.3123 50.9084 52.0089 50.605C51.7055 50.3017 51.2138 50.3017 50.9104 50.6051Z" fill="white"/>
</g>
<defs>
<clipPath id="clip0_1_50480">
<rect width="39.7744" height="39.7744" fill="white" transform="translate(31.4005 31.1128)"/>
</clipPath>
</defs>
</svg>
